<svg height="100%" stroke-miterlimit="10" style="fill-rule:nonzero;clip-rule:evenodd;stroke-linecap:round;stroke-linejoin:round;" version="1.1" viewBox="0 0 10 10" width="100%" xml:space="preserve" xmlns="http://www.w3.org/2000/svg">
<defs/>
<g id="Layer-1">
<g opacity="1">
<path d="M1.96875 2.5C1.42758 2.5 1 2.93603 1 3.46875L1 3.53125L1 4.5L1.96875 4.5L6.03125 4.5C6.57242 4.5 7 4.06397 7 3.53125L7 3.46875C7 2.93603 6.57242 2.5 6.03125 2.5L1.96875 2.5Z" fill="#c85e5e" fill-rule="nonzero" opacity="1" stroke="none"/>
<path d="M2 3.5C2 3.41716 2.06716 3.35 2.15 3.35L5.85 3.35C5.93284 3.35 6 3.41716 6 3.5L6 3.5C6 3.58284 5.93284 3.65 5.85 3.65L2.15 3.65C2.06716 3.65 2 3.58284 2 3.5L2 3.5Z" fill="#ffffff" fill-rule="nonzero" opacity="1" stroke="none"/>
<path d="M3.96875 5.5C3.42758 5.5 3 5.93604 3 6.46875L3 6.53125C3 7.06396 3.42758 7.5 3.96875 7.5L8.03125 7.5L9 7.5L9 6.53125L9 6.46875C9 5.93603 8.57242 5.5 8.03125 5.5L3.96875 5.5Z" fill="#4bd0a0" fill-rule="nonzero" opacity="1" stroke="none"/>
<path d="M4 6.5C4 6.41716 4.06716 6.35 4.15 6.35L7.85 6.35C7.93284 6.35 8 6.41716 8 6.5L8 6.5C8 6.58284 7.93284 6.65 7.85 6.65L4.15 6.65C4.06716 6.65 4 6.58284 4 6.5L4 6.5Z" fill="#ffffff" fill-rule="nonzero" opacity="1" stroke="none"/>
</g>
</g>
</svg>
